<svg width="28" height="28" viewBox="0 0 28 28" fill="none" xmlns="http://www.w3.org/2000/svg">
<path d="M14 1.75C15.3261 1.75 16.5979 2.21094 17.5355 3.03141C18.4732 3.85188 19 4.96468 19 6.125V7H9V6.125C9 4.96468 9.52678 3.85188 10.4645 3.03141C11.4021 2.21094 12.6739 1.75 14 1.75ZM21 7V6.125C21 4.50055 20.2625 2.94263 18.9497 1.79397C17.637 0.645311 15.8565 0 14 0C12.1435 0 10.363 0.645311 9.05025 1.79397C7.7375 2.94263 7 4.50055 7 6.125V7H0V24.5C0 25.4283 0.421427 26.3185 1.17157 26.9749C1.92172 27.6313 2.93913 28 4 28H24C25.0609 28 26.0783 27.6313 26.8284 26.9749C27.5786 26.3185 28 25.4283 28 24.5V7H21ZM2 8.75H26V24.5C26 24.9641 25.7893 25.4092 25.4142 25.7374C25.0391 26.0656 24.5304 26.25 24 26.25H4C3.46957 26.25 2.96086 26.0656 2.58579 25.7374C2.21071 25.4092 2 24.9641 2 24.5V8.75Z" fill="black"/>
</svg>
