<svg width="24" height="28" viewBox="0 0 24 28" fill="none" xmlns="http://www.w3.org/2000/svg">
<path fill-rule="evenodd" clip-rule="evenodd" d="M18.8889 9.10991C18.8889 10.937 18.1631 12.6892 16.8712 13.9811C15.5793 15.273 13.827 15.9988 12 15.9988C10.173 15.9988 8.42074 15.273 7.12882 13.9811C5.8369 12.6892 5.11111 10.937 5.11111 9.10991C5.11111 7.28287 5.8369 5.53065 7.12882 4.23873C8.42074 2.94682 10.173 2.22103 12 2.22103C13.827 2.22103 15.5793 2.94682 16.8712 4.23873C18.1631 5.53065 18.8889 7.28287 18.8889 9.10991ZM15.9643 16.6696C17.6545 15.7831 18.9987 14.3558 19.7823 12.6156C20.566 10.8754 20.7437 8.92282 20.2872 7.06973C19.8308 5.21664 18.7664 3.57002 17.2641 2.39292C15.7619 1.21582 13.9085 0.576172 12 0.576172C10.0915 0.576172 8.2381 1.21582 6.73586 2.39292C5.23361 3.57002 4.16923 5.21664 3.71275 7.06973C3.25628 8.92282 3.43405 10.8754 4.21767 12.6156C5.0013 14.3558 6.34555 15.7831 8.03567 16.6696C5.68712 17.4925 3.65231 19.0248 2.21273 21.0547C0.773135 23.0846 -9.17664e-05 25.5116 8.16862e-09 28.0002H1.64609C1.64609 25.2541 2.73695 22.6206 4.67868 20.6789C6.62042 18.7371 9.25397 17.6463 12 17.6463C14.746 17.6463 17.3796 18.7371 19.3213 20.6789C21.2631 22.6206 22.3539 25.2541 22.3539 28.0002H24C24.0001 25.5116 23.2269 23.0846 21.7873 21.0547C20.3477 19.0248 18.3129 17.4925 15.9643 16.6696Z" fill="black"/>
</svg>
